HIERARCHY
ROOT root
{
	OFFSET 0.000000 0.000000 0.000000
	CHANNELS 6 Xposition Yposition Zposition Zrotation Yrotation Xrotation
	JOINT lhip
	{
		OFFSET 0.058581 -0.082280 -0.017664
		CHANNELS 3 Zrotation Yrotation Xrotation
		JOINT lknee
		{
			OFFSET 0.043451 -0.386469 0.008037
			CHANNELS 3 Zrotation Yrotation Xrotation
			JOINT lankle
			{
				OFFSET -0.014790 -0.426874 -0.037428
				CHANNELS 3 Zrotation Yrotation Xrotation
				JOINT ltoe
				{
					OFFSET 0.041054 -0.060286 0.122042
					CHANNELS 3 Zrotation Yrotation Xrotation
					End Site
					{
						OFFSET 0.000000 0.000000 0.000000
					}
				}
			}
		}
	}
	JOINT rhip
	{
		OFFSET -0.060310 -0.090513 -0.013543
		CHANNELS 3 Zrotation Yrotation Xrotation
		JOINT rknee
		{
			OFFSET -0.043257 -0.383688 -0.004843
			CHANNELS 3 Zrotation Yrotation Xrotation
			JOINT rankle
			{
				OFFSET 0.019056 -0.420046 -0.034562
				CHANNELS 3 Zrotation Yrotation Xrotation
				JOINT rtoe
				{
					OFFSET -0.034840 -0.062106 0.130323
					CHANNELS 3 Zrotation Yrotation Xrotation
					End Site
					{
						OFFSET 0.000000 0.000000 0.000000
					}
				}
			}
		}
	}
	JOINT lowerback
	{
		OFFSET 0.004439 0.124404 -0.038385
		CHANNELS 3 Zrotation Yrotation Xrotation
		JOINT upperback
		{
			OFFSET 0.004488 0.137956 0.026820
			CHANNELS 3 Zrotation Yrotation Xrotation
			JOINT chest
			{
				OFFSET -0.002265 0.056032 0.002855
				CHANNELS 3 Zrotation Yrotation Xrotation
				JOINT lowerneck
				{
					OFFSET -0.013390 0.211636 -0.033468
					CHANNELS 3 Zrotation Yrotation Xrotation
					JOINT upperneck
					{
						OFFSET 0.010113 0.088937 0.050410
						CHANNELS 3 Zrotation Yrotation Xrotation
						End Site
						{
							OFFSET 0.000000 0.000000 0.000000
						}
					}
				}
				JOINT lclavicle
				{
					OFFSET 0.071702 0.114000 -0.018898
					CHANNELS 3 Zrotation Yrotation Xrotation
					JOINT lshoulder
					{
						OFFSET 0.122921 0.045205 -0.019046
						CHANNELS 3 Zrotation Yrotation Xrotation
						JOINT lelbow
						{
							OFFSET 0.255332 -0.015649 -0.022946
							CHANNELS 3 Zrotation Yrotation Xrotation
							JOINT lwrist
							{
								OFFSET 0.265709 0.012698 -0.007375
								CHANNELS 3 Zrotation Yrotation Xrotation
								End Site
								{
									OFFSET 0.000000 0.000000 0.000000
								}
							}
						}
					}
				}
				JOINT rclavicle
				{
					OFFSET -0.082954 0.112472 -0.023707
					CHANNELS 3 Zrotation Yrotation Xrotation
					JOINT rshoulder
					{
						OFFSET -0.113228 0.046853 -0.008472
						CHANNELS 3 Zrotation Yrotation Xrotation
						JOINT relbow
						{
							OFFSET -0.260127 -0.014369 -0.031269
							CHANNELS 3 Zrotation Yrotation Xrotation
							JOINT rwrist
							{
								OFFSET -0.269108 0.006794 -0.006027
								CHANNELS 3 Zrotation Yrotation Xrotation
								End Site
								{
									OFFSET 0.000000 0.000000 0.000000
								}
							}
						}
					}
				}
			}
		}
	}
}
MOTION
Frames: 7
Frame Time: 0.033333
-0.425473 0.374502 0.989959 95.089322 6.769224 89.556288 4.023762 1.588149 -2.006298 -3.773326 -12.591391 15.396385 4.384501 19.954449 -20.865861 0.000000 -0.000000 0.000000 -1.017987 -4.562554 -10.438062 3.151997 -2.157962 47.695680 6.855482 -18.454175 -11.994325 0.000000 -0.000000 0.000000 -2.860256 -1.019230 15.314307 -2.207768 -1.640993 -6.602637 0.118383 -1.060692 4.085116 3.954079 -8.298932 0.704572 5.607000 -2.393656 1.724276 -10.303427 4.141597 -8.449555 -19.509807 -4.150815 -10.856485 21.002023 -28.686779 -15.782737 8.673147 -1.396680 8.747744 0.577314 -2.730629 -12.680595 12.045210 2.909466 -7.697397 -13.749429 22.502416 -8.612967 -19.369733 1.254628 20.377344 
-0.418572 0.376107 0.988832 95.220554 6.891170 89.187124 4.235976 2.456996 -0.792493 -3.674957 -13.428568 14.638455 4.032103 19.660688 -21.520493 0.000000 -0.000000 0.000000 -1.104153 -4.814817 -12.464444 3.125031 -2.620132 45.411043 6.985887 -18.406652 -14.438111 0.000000 -0.000000 0.000000 -2.238463 -1.402258 15.871306 -1.931981 -1.428249 -6.857017 0.347150 -1.058754 4.239969 3.931205 -7.762706 0.410562 5.170244 -2.904208 1.613255 -9.922348 4.226702 -8.623097 -18.706843 -4.294505 -11.337400 21.075222 -28.589093 -16.048005 8.872127 -1.484625 8.520557 1.000856 -2.571519 -12.625556 12.009625 3.219641 -7.945082 -13.760338 22.415053 -8.659833 -19.549663 1.250600 20.698789 
-0.411513 0.377437 0.987647 95.319464 6.978013 88.844394 4.447398 3.264341 0.412992 -3.550639 -14.066653 13.870502 3.717520 19.406807 -22.176023 0.000000 -0.000000 0.000000 -1.140548 -4.977621 -14.696109 3.131388 -3.055213 42.722481 7.294070 -18.117402 -16.175551 0.000000 -0.000000 0.000000 -1.622415 -1.802994 16.495271 -1.594244 -1.200295 -7.113317 0.632154 -1.060584 4.389563 3.805133 -7.148364 0.106281 4.732029 -3.403843 1.383240 -9.520036 4.386318 -8.769080 -18.043637 -4.535647 -11.817551 21.085587 -28.471414 -16.282433 8.913205 -1.542457 8.253048 1.472240 -2.439987 -12.411214 12.057395 3.535832 -8.068131 -13.886936 22.413868 -8.693915 -19.558249 1.241506 20.846597 
-0.404054 0.378490 0.986503 95.412835 7.036774 88.508480 4.673444 4.046074 1.572171 -3.430626 -14.612166 13.201640 3.429507 19.138106 -22.703955 0.000000 -0.000000 0.000000 -1.116055 -5.016055 -16.987911 3.161812 -3.487318 39.647813 7.600544 -17.832385 -17.087764 0.000000 -0.000000 0.000000 -1.002679 -2.249213 17.176347 -1.232614 -0.977379 -7.330475 0.953460 -1.052003 4.505472 3.599079 -6.599876 -0.133128 4.347979 -3.817301 1.030966 -9.092732 4.481712 -8.736725 -17.547061 -4.655793 -12.266899 21.009005 -28.387454 -16.348611 8.870557 -1.663090 8.044553 1.957761 -2.273050 -12.090345 12.176557 3.847924 -8.249634 -13.900597 22.421603 -8.537616 -19.388375 1.219452 21.039050 
-0.395926 0.379220 0.985655 95.457452 6.980669 88.164536 4.712557 4.638490 2.747894 -3.204803 -15.139881 12.579094 3.180247 19.112958 -23.058583 0.000000 -0.000000 0.000000 -1.096763 -4.914850 -19.166994 3.102103 -3.801334 36.149437 7.965931 -17.551766 -16.707761 0.000000 -0.000000 0.000000 -0.484462 -2.679201 17.886757 -0.879219 -0.747778 -7.451888 1.338072 -1.019740 4.616647 3.329305 -6.197346 -0.446376 4.021414 -4.125402 0.558740 -8.671982 4.599517 -8.738277 -17.311925 -4.808038 -12.552167 20.813646 -28.268069 -16.106082 8.806562 -1.790888 8.104600 2.411903 -2.143703 -11.917776 12.535141 4.238415 -8.278180 -14.020077 22.359899 -8.596524 -19.356099 1.128543 21.218568 
-0.387062 0.379651 0.984803 95.544026 6.846137 87.944331 4.589664 4.961433 3.782861 -2.913931 -15.491472 12.084928 3.147540 19.297650 -23.272681 0.000000 -0.000000 0.000000 -1.096717 -4.678640 -21.173515 3.027303 -3.949532 32.156008 8.436457 -17.499990 -14.802140 0.000000 -0.000000 0.000000 0.031024 -3.125298 18.413446 -0.483401 -0.532016 -7.577144 1.693278 -1.048183 4.796772 2.996267 -5.965178 -0.753305 3.653972 -4.224297 0.322708 -8.320533 4.780241 -8.575240 -17.339119 -5.120638 -12.755874 20.717433 -28.083546 -15.978231 8.822685 -1.884054 8.105832 2.831905 -2.019201 -11.543663 13.042623 4.802619 -8.056941 -14.377371 22.157408 -9.029993 -19.341092 0.901081 21.138765 
-0.377221 0.379735 0.983617 95.728570 6.591097 87.802442 4.324334 5.280830 4.717071 -2.573331 -15.746091 11.739332 3.144728 19.397286 -23.539202 0.000000 -0.000000 0.000000 -1.158646 -4.605092 -22.875329 2.823115 -3.919407 27.839799 9.060142 -17.291059 -12.175349 0.000000 -0.000000 0.000000 0.559676 -3.488987 18.837035 -0.127037 -0.396492 -7.714484 2.048787 -1.108718 4.962929 2.611583 -5.967660 -0.985982 3.353328 -4.193477 0.080994 -8.060422 4.870981 -8.412061 -17.478376 -5.523494 -12.993153 20.715393 -27.927192 -15.995504 8.704156 -2.012345 8.107004 3.160172 -1.959519 -11.268641 13.558824 5.295715 -7.817502 -14.550813 21.924052 -9.344565 -19.215518 0.679750 21.043537 
